<svg xmlns="http://www.w3.org/2000/svg" xmlns:xlink="http://www.w3.org/1999/xlink" width="279" height="60" viewBox="0 0 279 60"><defs><clipPath id="b"><rect width="279" height="60"/></clipPath></defs><g id="a" clip-path="url(#b)"><rect width="279" height="60" fill="rgba(255,255,255,0)"/><g transform="translate(138.55 29.85)"><g transform="translate(-127.55 -19.85)"><path d="M256.118,0V40H118.4L145.3,0Z" transform="translate(0.882)" fill="#0080aa"/><path d="M0,40V0H141.143l-26.9,40Z" fill="#1c1c1c"/><g transform="translate(7.556 10.78)"><path d="M114.793,14.831a1.813,1.813,0,1,1,1.31-.5,1.813,1.813,0,0,1-1.31.5m0-.3a1.511,1.511,0,1,0-1.511-1.511h0a1.511,1.511,0,0,0,1.511,1.612Zm-.806-.5V12.01h1.007a.6.6,0,0,1,.6.5h0a.4.4,0,0,1,0,.1.5.5,0,0,1-.4.5.4.4,0,0,1,.3.4v.6h-.4a1.007,1.007,0,0,1,0-.3.461.461,0,0,0-.4-.5h-.4v.705Zm.4-1.108h.5a.3.3,0,0,0,0-.6h-.6Zm-70.622,8.16V17.148l-2.72,3.929ZM96.961,24.3l-.2.4A9.369,9.369,0,0,1,88.4,29.842h0A9.47,9.47,0,0,1,79.734,24V29.64H76.611L68.148,17.45V29.64H64.723V23.8a9.47,9.47,0,0,1-8.765,6.045h-.1A9.47,9.47,0,0,1,47.093,23.9V29.64H43.768V24.2H38.832L35.2,29.539H31.276V17.047L22.612,29.539H20.295V17.248L11.631,29.539H7.5L20.295,11h3.325V21.983L31.276,11H34.7V24.1L43.768,11h3.425v5.742A9.47,9.47,0,0,1,55.858,10.8h.1a9.47,9.47,0,0,1,8.362,5.138l.2.5h-4.03a6.045,6.045,0,0,0-4.534-2.015h0a6.045,6.045,0,0,0-6.045,6.145h0a6.045,6.045,0,0,0,6.045,6.145h0a6.045,6.045,0,0,0,5.44-3.728H53.137l2.216-3.123h9.369V11h3.224l8.261,11.989V11h3.526v5.642A9.47,9.47,0,0,1,88.4,10.7h0a9.269,9.269,0,0,1,8.563,5.742V11h3.425V23.495L109.051,11h2.418V23.293L120.032,11h4.131L111.368,29.539h-3.325V18.457l-7.657,11.082H96.961Zm0-.1V20.372H85.577l2.216-3.325h5.843A6.045,6.045,0,0,0,88.5,14.125h0a6.045,6.045,0,0,0-6.045,6.145h0A6.045,6.045,0,0,0,88.5,26.315h0A6.045,6.045,0,0,0,93.133,24.2h3.828Z" transform="translate(-7.5 -10.7)" fill="#fff"/></g><g transform="translate(144.972 10.477)"><path d="M143.9,20.37a9.571,9.571,0,0,1,9.772-9.47,9.873,9.873,0,0,1,7.657,3.425l-3.123,2.418a5.843,5.843,0,0,0-4.634-2.116A5.742,5.742,0,1,0,158,24.1V20.37h4.03v4.936a10.377,10.377,0,0,1-8.463,4.534,9.47,9.47,0,0,1-9.671-9.47Z" transform="translate(-143.9 -10.396)" fill="#fff"/><path d="M173.278,10.4l10.477,19.041h-4.332l-1.813-3.425h-8.765l-1.813,3.425H162.7ZM175.8,22.691l-2.619-4.836-2.619,4.836Z" transform="translate(-143.76 -10.4)" fill="#fff"/><path d="M190.23,18.454V29.435H186.2V11.2h4.03l6.347,11.686L203.125,11.2h3.929V29.435h-4.03V18.454l-6.347,11.586Z" transform="translate(-143.585 -10.394)" fill="#fff"/><path d="M211.5,11.2h14.407v3.627H215.429v3.224h7.354v3.526h-7.354v4.231h10.477v3.627H211.5Z" transform="translate(-143.397 -10.394)" fill="#fff"/><path d="M229.2,27.624l2.116-3.123a12.391,12.391,0,0,0,6.145,1.612c1.914,0,3.123-.705,3.224-1.813s-.6-1.511-2.821-2.015l-2.216-.5c-4.131-.907-5.742-2.72-5.742-5.541S233.028,11,237.058,10.9a14.407,14.407,0,0,1,7.254,1.914L242.3,15.937a9.47,9.47,0,0,0-4.836-1.41c-1.914,0-3.224.6-3.224,1.813s.806,1.511,2.619,1.914l2.519.5c3.929.806,5.541,2.519,5.541,5.44s-3.022,5.44-7.556,5.44a16.018,16.018,0,0,1-8.16-2.015Z" transform="translate(-143.265 -10.396)" fill="#fff"/></g></g></g></g></svg>